<?xml version="1.0" encoding="UTF-8"?>
<svg version="1.1" xmlns="http://www.w3.org/2000/svg" width="256" height="256">
<path d="M0 0 C1.24494514 -0.00551503 1.24494514 -0.00551503 2.5150407 -0.01114148 C5.30624204 -0.02218648 8.09740616 -0.02602355 10.8886261 -0.02983093 C12.88591633 -0.03609499 14.88320539 -0.04274173 16.88049316 -0.04974365 C22.31455961 -0.06715911 27.74861725 -0.07770701 33.18270469 -0.08594918 C36.57736918 -0.09109841 39.97203094 -0.09717419 43.3666935 -0.10346031 C53.98668401 -0.12251432 64.60666755 -0.13674475 75.22667187 -0.14507228 C87.4876032 -0.15484506 99.74835402 -0.18116489 112.00922173 -0.22157317 C121.48448963 -0.25172974 130.95970578 -0.26654074 140.43502074 -0.26985329 C146.09487112 -0.27220437 151.7545287 -0.28117242 157.41432762 -0.30631447 C162.74050071 -0.3295919 168.06635401 -0.33382962 173.39256477 -0.32355309 C175.34524982 -0.32305753 177.29795059 -0.32938369 179.25058746 -0.34310913 C181.92142797 -0.36082937 184.59112099 -0.3537214 187.26196289 -0.34057617 C188.03036725 -0.35154542 188.79877161 -0.36251466 189.59046096 -0.37381631 C195.68551799 -0.3016462 200.83850493 1.42471022 205.48042697 5.48828334 C210.74380465 11.25476939 211.24665701 18.04851296 211.21586609 25.52116394 C211.2203972 26.33750529 211.22492831 27.15384665 211.22959673 27.99492562 C211.24220441 30.71614264 211.24062273 33.43715859 211.2389679 36.15840149 C211.24495536 38.11525224 211.25176141 40.07210063 211.25932312 42.02894592 C211.27696672 47.33476429 211.28167777 52.64051811 211.28295469 57.94636297 C211.28437761 61.26333758 211.28864986 64.58029584 211.29394913 67.89726639 C211.31244297 79.47488189 211.32062042 91.05245139 211.31904602 102.63008118 C211.31784434 113.4131825 211.33895364 124.19608375 211.37053335 134.97913444 C211.39670211 144.24559114 211.40741308 153.51198252 211.4061352 162.77847588 C211.40562581 168.30917978 211.41129681 173.83970576 211.4324913 179.37037277 C211.45188404 184.57268249 211.45199093 189.77464474 211.43745804 194.97696686 C211.43537024 196.88246545 211.44006907 198.78798586 211.45217896 200.69344711 C211.57430368 221.24606459 211.57430368 221.24606459 204.9132843 228.30342102 C204.24426086 228.74685852 203.57523743 229.19029602 202.88594055 229.64717102 C202.21433899 230.11123352 201.54273743 230.57529602 200.8507843 231.05342102 C196.63514581 233.47719674 192.60646922 233.29545584 187.8968811 233.29434204 C187.06691767 233.29801873 186.23695424 233.30169542 185.38184041 233.30548352 C182.59063907 233.31652853 179.79947494 233.32036559 177.008255 233.32417297 C175.01096478 233.33043703 173.01367572 233.33708377 171.01638794 233.34408569 C165.5823215 233.36150115 160.14826386 233.37204905 154.71417642 233.38029122 C151.31951192 233.38544045 147.92485017 233.39151624 144.53018761 233.39780235 C133.9101971 233.41685636 123.29021355 233.43108679 112.67020923 233.43941432 C100.4092779 233.4491871 88.14852709 233.47550693 75.88765937 233.51591522 C66.41239147 233.54607178 56.93717532 233.56088278 47.46186036 233.56419533 C41.80200998 233.56654641 36.1423524 233.57551446 30.48255348 233.60065651 C25.15638039 233.62393394 19.8305271 233.62817166 14.50431633 233.61789513 C12.55163128 233.61739957 10.59893051 233.62372573 8.64629364 233.63745117 C5.97545313 233.65517141 3.30576011 233.64806344 0.63491821 233.63491821 C-0.51768833 233.65137208 -0.51768833 233.65137208 -1.69357985 233.66815835 C-7.77808378 233.5961132 -12.99318454 231.89516662 -17.58354586 227.77065831 C-22.66622018 222.09958918 -23.34894335 216.19187773 -23.31898499 208.85546875 C-23.3235161 208.03589827 -23.32804721 207.21632779 -23.33271563 206.37192184 C-23.34534596 203.63377978 -23.34374015 200.89583698 -23.34208679 198.15766907 C-23.3480729 196.19111374 -23.35487863 194.22456076 -23.36244202 192.25801086 C-23.38010093 186.92114263 -23.38479736 181.58433854 -23.38607359 176.24744391 C-23.38749582 172.91154613 -23.39176678 169.57566463 -23.39706802 166.23977089 C-23.41556799 154.59732148 -23.42373868 142.95491785 -23.42216492 131.31245422 C-23.42096355 120.46745815 -23.44206504 109.6226611 -23.47365224 98.77771538 C-23.49982123 89.4603239 -23.51053195 80.1429974 -23.5092541 70.82556945 C-23.50874465 65.26355193 -23.51441869 59.7017113 -23.5356102 54.13973045 C-23.55500292 48.90706593 -23.55510982 43.67474686 -23.54057693 38.44207001 C-23.53848903 36.52528439 -23.54318861 34.60847709 -23.55529785 32.69172859 C-23.67723425 12.04807791 -23.67723425 12.04807791 -17.0164032 4.99092102 C-16.34737976 4.54748352 -15.67835632 4.10404602 -14.98905945 3.64717102 C-14.31745789 3.18310852 -13.64585632 2.71904602 -12.9539032 2.24092102 C-8.73826471 -0.1828547 -4.70958812 -0.0011138 0 0 Z " fill="#566268" transform="translate(35.05155944824219,11.852828979492188)"/>
<path d="M0 0 C38.94 0 77.88 0 118 0 C118.0825 16.479375 118.165 32.95875 118.25 49.9375 C118.28641602 55.12847412 118.32283203 60.31944824 118.36035156 65.66772461 C118.37841797 72.03820801 118.37841797 72.03820801 118.3817749 75.02662659 C118.38789124 77.10043273 118.40190553 79.17422521 118.42230225 81.24794006 C118.45174882 84.40113796 118.45561854 87.55347152 118.45410156 90.70678711 C118.468494 91.62060874 118.48288643 92.53443037 118.497715 93.47594357 C118.45253317 100.53159901 116.91959673 106.90668446 111.96484375 112.15625 C111.29582031 112.5996875 110.62679687 113.043125 109.9375 113.5 C108.93009766 114.19609375 108.93009766 114.19609375 107.90234375 114.90625 C104.78951934 116.69596424 102.24521821 117.12453742 98.72895813 117.12025452 C97.42549549 117.12232076 97.42549549 117.12232076 96.09570026 117.12442875 C95.14155326 117.12083064 94.18740625 117.11723253 93.2043457 117.11352539 C91.67237061 117.11370619 91.67237061 117.11370619 90.10944653 117.11389065 C86.79820274 117.11314331 83.48701499 117.10552314 80.17578125 117.09765625 C78.13358589 117.09618628 76.09139015 117.09516591 74.04919434 117.09460449 C66.47029048 117.08935801 58.89139469 117.07539685 51.3125 117.0625 C25.9128125 117.0315625 25.9128125 117.0315625 0 117 C0 78.39 0 39.78 0 0 Z " fill="#00B6F3" transform="translate(128,128)"/>
<path d="M0 0 C16.83 -0.0825 33.66 -0.165 51 -0.25 C56.30449219 -0.28641602 61.60898438 -0.32283203 67.07421875 -0.36035156 C73.57617188 -0.37841797 73.57617188 -0.37841797 76.62475586 -0.3817749 C78.74360518 -0.38789752 80.86244099 -0.40192502 82.98120117 -0.42230225 C86.19995147 -0.45169804 89.41785378 -0.45562022 92.63671875 -0.45410156 C93.57287521 -0.468494 94.50903168 -0.48288643 95.47355652 -0.497715 C102.10497667 -0.45599722 107.45182818 0.88026112 112.5254364 5.34124374 C118.28517174 11.62034512 118.29104307 18.8590423 118.22705078 26.88256836 C118.22729185 27.86471848 118.22753292 28.84686861 118.2277813 29.85878086 C118.22629561 33.01922922 118.21109697 36.17943791 118.1953125 39.33984375 C118.19236976 41.29854214 118.19033074 43.2572421 118.18920898 45.21594238 C118.17874843 52.45648567 118.15082589 59.69699522 118.125 66.9375 C118.08375 83.128125 118.0425 99.31875 118 116 C79.06 116 40.12 116 0 116 C0 77.72 0 39.44 0 0 Z " fill="#6C787F" transform="translate(128,12)"/>
<path d="M0 0 C4.5036667 2.14709691 7.74314221 6.28774253 11.015625 9.9609375 C14.20625796 8.57763476 16.0505392 7.00216924 18.328125 4.3984375 C20.92981963 1.72974644 22.01534684 0.96102708 25.703125 -0.2265625 C29.015625 -0.0390625 29.015625 -0.0390625 31.515625 1.4609375 C33.12461631 4.14258969 33.58286568 5.84642958 32.9765625 8.9453125 C30.82946559 13.4489792 26.68881997 16.68845471 23.015625 19.9609375 C24.40111776 23.14965953 25.99250373 25.03640793 28.578125 27.3359375 C30.97035525 29.67812109 31.98848575 30.88951842 33.203125 34.0859375 C33.015625 36.9609375 33.015625 36.9609375 31.515625 39.8984375 C29.015625 41.9609375 29.015625 41.9609375 25.828125 42.3359375 C20.28827308 41.16775133 16.61383715 35.99974705 13.015625 31.9609375 C9.82499204 33.34424024 7.9807108 34.91970576 5.703125 37.5234375 C3.10143037 40.19212856 2.01590316 40.96084792 -1.671875 42.1484375 C-4.984375 41.9609375 -4.984375 41.9609375 -7.484375 40.4609375 C-9.09336631 37.77928531 -9.55161568 36.07544542 -8.9453125 32.9765625 C-6.79821559 28.4728958 -2.65756997 25.23342029 1.015625 21.9609375 C-0.36767774 18.77030454 -1.94314326 16.9260233 -4.546875 14.6484375 C-7.21556606 12.04674287 -7.98428542 10.96121566 -9.171875 7.2734375 C-8.984375 3.9609375 -8.984375 3.9609375 -7.484375 1.4609375 C-4.80272281 -0.14805381 -3.09888292 -0.60630318 0 0 Z " fill="#F9F9F9" transform="translate(175.984375,51.0390625)"/>
<path d="M0 0 C3.375 0.9375 3.375 0.9375 5.375 3.9375 C5.51745897 6.70405324 5.56269445 9.36403306 5.5 12.125 C5.49097656 12.87458984 5.48195312 13.62417969 5.47265625 14.39648438 C5.44912578 16.24362654 5.41325561 18.09060412 5.375 19.9375 C6.48359375 19.89109375 7.5921875 19.8446875 8.734375 19.796875 C10.19788968 19.75934898 11.66143356 19.72294971 13.125 19.6875 C13.85460937 19.65398437 14.58421875 19.62046875 15.3359375 19.5859375 C18.88972546 19.52132317 20.95942295 19.64240808 23.89453125 21.7265625 C25.375 23.9375 25.375 23.9375 25.3125 27.5625 C24.375 30.9375 24.375 30.9375 21.375 32.9375 C18.60844676 33.07995897 15.94846694 33.12519445 13.1875 33.0625 C12.43791016 33.05347656 11.68832031 33.04445312 10.91601562 33.03515625 C9.06887346 33.01162578 7.22189588 32.97575561 5.375 32.9375 C5.42140625 34.04609375 5.4678125 35.1546875 5.515625 36.296875 C5.55315102 37.76038968 5.58955029 39.22393356 5.625 40.6875 C5.67527344 41.78191406 5.67527344 41.78191406 5.7265625 42.8984375 C5.79117683 46.45222546 5.67009192 48.52192295 3.5859375 51.45703125 C1.375 52.9375 1.375 52.9375 -2.25 52.875 C-5.625 51.9375 -5.625 51.9375 -7.625 48.9375 C-7.76745897 46.17094676 -7.81269445 43.51096694 -7.75 40.75 C-7.74097656 40.00041016 -7.73195313 39.25082031 -7.72265625 38.47851562 C-7.69912578 36.63137346 -7.66325561 34.78439588 -7.625 32.9375 C-9.28789063 33.00710937 -9.28789063 33.00710937 -10.984375 33.078125 C-12.44788968 33.11565102 -13.91143356 33.15205029 -15.375 33.1875 C-16.10460938 33.22101563 -16.83421875 33.25453125 -17.5859375 33.2890625 C-21.13972546 33.35367683 -23.20942295 33.23259192 -26.14453125 31.1484375 C-27.625 28.9375 -27.625 28.9375 -27.5625 25.3125 C-26.625 21.9375 -26.625 21.9375 -23.625 19.9375 C-20.85844676 19.79504103 -18.19846694 19.74980555 -15.4375 19.8125 C-14.68791016 19.82152344 -13.93832031 19.83054688 -13.16601562 19.83984375 C-11.31887346 19.86337422 -9.47189588 19.89924439 -7.625 19.9375 C-7.67140625 18.82890625 -7.7178125 17.7203125 -7.765625 16.578125 C-7.80315102 15.11461032 -7.83955029 13.65106644 -7.875 12.1875 C-7.90851563 11.45789063 -7.94203125 10.72828125 -7.9765625 9.9765625 C-8.04117683 6.42277454 -7.92009192 4.35307705 -5.8359375 1.41796875 C-3.625 -0.0625 -3.625 -0.0625 0 0 Z " fill="#F9F9F9" transform="translate(72.625,159.0625)"/>
<path d="M0 0 C0.96147949 -0.0038269 1.92295898 -0.00765381 2.91357422 -0.01159668 C4.9443466 -0.01431602 6.97515399 -0.00695329 9.00585938 0.00976562 C12.1140757 0.03117475 15.21998056 0.00996454 18.328125 -0.015625 C20.30208843 -0.01298173 22.27605043 -0.00785676 24.25 0 C25.17925293 -0.00809692 26.10850586 -0.01619385 27.06591797 -0.02453613 C33.4533179 0.06827985 33.4533179 0.06827985 36.74609375 2.33789062 C38.125 4.53125 38.125 4.53125 38.0625 8.15625 C37.125 11.53125 37.125 11.53125 34.125 13.53125 C32.1207428 13.79867554 32.1207428 13.79867554 29.80883789 13.82177734 C28.94106216 13.83453705 28.07328644 13.84729675 27.17921448 13.86044312 C25.77759315 13.86378159 25.77759315 13.86378159 24.34765625 13.8671875 C23.38476181 13.8738443 22.42186737 13.8805011 21.42979431 13.88735962 C19.39307568 13.89748593 17.35632386 13.90217665 15.31958008 13.90185547 C12.20273225 13.90622863 9.08730035 13.94254855 5.97070312 13.98046875 C3.99219235 13.98633688 2.01367484 13.9903063 0.03515625 13.9921875 C-0.89723373 14.00655853 -1.82962372 14.02092957 -2.79026794 14.03573608 C-9.2407195 13.9901625 -9.2407195 13.9901625 -12.46313477 11.65869141 C-14.24755154 8.96987803 -14.50805303 7.69651513 -13.875 4.53125 C-10.36898944 -0.7326084 -5.74274343 -0.05003864 0 0 Z " fill="#F2F7F9" transform="translate(175.875,189.46875)"/>
<path d="M0 0 C1.27163246 -0.00945648 1.27163246 -0.00945648 2.56895447 -0.019104 C3.93776512 -0.01303131 3.93776512 -0.01303131 5.33422852 -0.00683594 C6.27492691 -0.00874939 7.21562531 -0.01066284 8.18482971 -0.01263428 C10.17449206 -0.01399537 12.16416331 -0.01030421 14.15380859 -0.00195312 C17.19787596 0.00873548 20.24135156 -0.00184487 23.28540039 -0.01464844 C25.2183444 -0.0133266 27.15128804 -0.01076369 29.08422852 -0.00683594 C29.99474472 -0.0108844 30.90526093 -0.01493286 31.84336853 -0.019104 C32.69427567 -0.01279968 33.5451828 -0.00649536 34.421875 0 C35.16783432 0.00159119 35.91379364 0.00318237 36.68235779 0.00482178 C39.12803397 0.30154397 40.7097514 0.9207495 42.77563477 2.25878906 C43.77563477 5.07128906 43.77563477 5.07128906 43.77563477 8.25878906 C42.39282227 10.91870117 42.39282227 10.91870117 39.77563477 13.25878906 C36.48797641 14.00395683 33.25961039 13.93561983 29.90063477 13.88769531 C28.93915527 13.89010727 27.97767578 13.89251923 26.98706055 13.89500427 C24.95625683 13.89402571 22.92542648 13.88062984 20.89477539 13.85571289 C17.78643167 13.82140822 14.68093118 13.83505225 11.57250977 13.85449219 C9.59853933 13.84759362 7.62457623 13.83792115 5.65063477 13.82519531 C4.72138184 13.83015518 3.79212891 13.83511505 2.8347168 13.84022522 C-3.55070808 13.72368529 -3.55070808 13.72368529 -6.84545898 11.44995117 C-8.22436523 9.25878906 -8.22436523 9.25878906 -8.16186523 5.63378906 C-6.82241178 0.81175663 -4.67550984 0.00998386 0 0 Z " fill="#FBFBFB" transform="translate(170.224365234375,168.7412109375)"/>
<path d="M0 0 C1.24160133 -0.01418472 1.24160133 -0.01418472 2.50828552 -0.02865601 C3.39895218 -0.02258331 4.28961884 -0.01651062 5.20727539 -0.01025391 C6.12577774 -0.01312408 7.04428009 -0.01599426 7.99061584 -0.01895142 C9.93320329 -0.02099291 11.87581125 -0.01545708 13.81835938 -0.00292969 C16.79026376 0.01310446 19.76080436 -0.00276599 22.73266602 -0.02197266 C24.62003881 -0.01998988 26.50741075 -0.01614549 28.39477539 -0.01025391 C29.28341782 -0.0163266 30.17206024 -0.02239929 31.08763123 -0.02865601 C37.27865502 0.04180526 37.27865502 0.04180526 40.45947266 1.91308594 C40.92409912 2.39986816 41.38872559 2.88665039 41.86743164 3.38818359 C41.55493164 6.76318359 41.55493164 6.76318359 40.86743164 10.38818359 C37.83940793 12.40686607 37.2266718 12.64218462 33.82666016 12.67871094 C33.01894669 12.69147064 32.21123322 12.70423035 31.37904358 12.71737671 C30.5102507 12.71960236 29.64145782 12.721828 28.74633789 12.72412109 C27.40187843 12.73410629 27.40187843 12.73410629 26.03025818 12.74429321 C24.13477633 12.7544173 22.23925886 12.75911031 20.34375 12.75878906 C17.44414562 12.76316216 14.54606352 12.79948323 11.64672852 12.83740234 C9.80493685 12.84327057 7.96313795 12.84723992 6.12133789 12.84912109 C5.25456924 12.86349213 4.3878006 12.87786316 3.49476624 12.89266968 C-2.50602558 12.84713263 -2.50602558 12.84713263 -5.68359375 10.51953125 C-7.486612 7.86740836 -7.6970633 6.53322684 -7.13256836 3.38818359 C-4.94814143 0.58576941 -3.50996803 0.01151709 0 0 Z " fill="#FAFAFA" transform="translate(54.132568359375,65.61181640625)"/>
<path d="M0 0 C0.66 0.33 1.32 0.66 2 1 C2.33333333 3.33333333 2.66666667 5.66666667 3 8 C5.30619098 9.15309549 6.65217821 9.13832146 9.21850586 9.16113281 C10.52512428 9.17554413 10.52512428 9.17554413 11.85813904 9.19024658 C12.80085159 9.19449646 13.74356415 9.19874634 14.71484375 9.203125 C15.68152481 9.20882507 16.64820587 9.21452515 17.6441803 9.22039795 C19.69107974 9.22985336 21.73799445 9.23638407 23.78491211 9.24023438 C26.92132988 9.24994991 30.05709522 9.28097233 33.19335938 9.3125 C35.1796836 9.31902892 37.16601252 9.32427983 39.15234375 9.328125 C40.09303207 9.3404718 41.0337204 9.3528186 42.00291443 9.36553955 C42.87714554 9.36253845 43.75137665 9.35953735 44.65209961 9.35644531 C45.80554115 9.36191376 45.80554115 9.36191376 46.98228455 9.36749268 C49.55350184 8.89918902 50.41910774 8.04657718 52 6 C52.72197162 3.39388923 52.72197162 3.39388923 53 1 C55 4 55 4 54.9375 6.375 C53.61732225 10.0714977 52.11942666 11.58744095 49 14 C45.69317531 14.68356936 42.47000894 14.58319815 39.10546875 14.48828125 C38.15811356 14.48120651 37.21075836 14.47413177 36.23469543 14.46684265 C33.21814979 14.43892334 30.2034816 14.37618915 27.1875 14.3125 C25.13869874 14.28741396 23.0898683 14.26460133 21.04101562 14.24414062 C16.02662379 14.18910459 11.01362986 14.10284856 6 14 C6 13.34 6 12.68 6 12 C4.35 11.67 2.7 11.34 1 11 C1 9.68 1 8.36 1 7 C0.34 7 -0.32 7 -1 7 C-0.67 4.69 -0.34 2.38 0 0 Z " fill="#019CD9" transform="translate(161,193)"/>
<path d="M0 0 C1.5625 1.0625 1.5625 1.0625 3 3 C2.875 6.5625 2.875 6.5625 2 10 C-1.79163027 12.52775351 -4.80874031 12.22443035 -9.1875 12.125 C-9.93708984 12.11597656 -10.68667969 12.10695312 -11.45898438 12.09765625 C-13.30612654 12.07412578 -15.15310412 12.03825561 -17 12 C-16.93039063 13.66289062 -16.93039063 13.66289062 -16.859375 15.359375 C-16.82184898 16.82288968 -16.78544971 18.28643356 -16.75 19.75 C-16.69972656 20.84441406 -16.69972656 20.84441406 -16.6484375 21.9609375 C-16.58382317 25.51472546 -16.70490808 27.58442295 -18.7890625 30.51953125 C-21 32 -21 32 -24.625 31.9375 C-28 31 -28 31 -30 28 C-30.1953125 24.86328125 -30.1953125 24.86328125 -30.125 21.3125 C-30.09792969 19.54326172 -30.09792969 19.54326172 -30.0703125 17.73828125 C-30.04710938 16.83464844 -30.02390625 15.93101562 -30 15 C-29.67 15 -29.34 15 -29 15 C-28.34 18.96 -27.68 22.92 -27 27 C-25.35 26.67 -23.7 26.34 -22 26 C-19.3013172 21.9519758 -19.66774913 18.58560419 -19.5390625 13.8125 C-19 11 -19 11 -17.30859375 9.15625 C-13.77722973 7.38758037 -10.44727861 7.53288289 -6.55859375 7.40625 C-3.62992575 6.94124012 -2.75387962 6.34040429 -1 4 C-0.28552357 1.89667109 -0.28552357 1.89667109 0 0 Z " fill="#E8EAEB" transform="translate(95,180)"/>
<path d="M0 0 C6.27906977 0.46511628 6.27906977 0.46511628 8.9375 2.4375 C10 4 10 4 10 6 C10.99 6.33 11.98 6.66 13 7 C13 7.99 13 8.98 13 10 C15.64 10 18.28 10 21 10 C21.144375 9.236875 21.28875 8.47375 21.4375 7.6875 C22 5 22 5 23 2 C25 5 25 5 24.8125 8 C24 11 24 11 22.875 12.9375 C20.52651467 14.26830835 18.69893882 14.3964388 16.05078125 13.92578125 C11.50234214 11.87248588 8.26837271 7.66858161 5 4 C1.80936704 5.38330274 -0.0349142 6.95876826 -2.3125 9.5625 C-4.91419463 12.23119106 -5.99972184 12.99991042 -9.6875 14.1875 C-13 14 -13 14 -15.5 12.5 C-17 10 -17 10 -16.9375 6.375 C-16 3 -16 3 -13 1 C-13.33 3.64 -13.66 6.28 -14 9 C-9.86330684 8.47929737 -7.78546392 7.3269206 -4.75 4.5 C-3.72132813 3.55640625 -3.72132813 3.55640625 -2.671875 2.59375 C-1.77343369 1.73729192 -0.87770076 0.87770076 0 0 Z " fill="#E6E8E9" transform="translate(184,79)"/>
<path d="M0 0 C0.66 0.33 1.32 0.66 2 1 C1.6875 4.375 1.6875 4.375 1 8 C-2.09758578 10.06505719 -2.80149301 10.25540687 -6.31616211 10.29052734 C-7.18393784 10.30328705 -8.05171356 10.31604675 -8.94578552 10.32919312 C-10.34740685 10.33253159 -10.34740685 10.33253159 -11.77734375 10.3359375 C-12.74023819 10.3425943 -13.70313263 10.3492511 -14.69520569 10.35610962 C-16.73192432 10.36623593 -18.76867614 10.37092665 -20.80541992 10.37060547 C-23.92226775 10.37497863 -27.03769965 10.41129855 -30.15429688 10.44921875 C-32.13280765 10.45508688 -34.11132516 10.4590563 -36.08984375 10.4609375 C-37.02223373 10.47530853 -37.95462372 10.48967957 -38.91526794 10.50448608 C-45.35642888 10.45897814 -45.35642888 10.45897814 -48.60375977 8.14306641 C-50.28645677 5.56032217 -50.33621532 4.02593786 -50 1 C-49.773125 1.639375 -49.54625 2.27875 -49.3125 2.9375 C-48.20115068 5.17540436 -48.20115068 5.17540436 -45.9909668 5.62060547 C-41.927467 6.13604737 -37.92418603 6.14264018 -33.83203125 6.1328125 C-32.95600754 6.13376923 -32.07998383 6.13472595 -31.17741394 6.13571167 C-29.33254931 6.13639025 -27.48768226 6.13455847 -25.64282227 6.13037109 C-22.8119577 6.12499897 -19.9812504 6.13033686 -17.15039062 6.13671875 C-15.35677048 6.13605829 -13.56315044 6.13477779 -11.76953125 6.1328125 C-10.92058792 6.13483673 -10.07164459 6.13686096 -9.19697571 6.13894653 C-4.9642349 6.24125726 -4.9642349 6.24125726 -1 5 C-0.34444881 2.47266765 -0.34444881 2.47266765 0 0 Z " fill="#D3DADD" transform="translate(212,193)"/>
<path d="M0 0 C0.61931396 0.64904297 1.23862793 1.29808594 1.87670898 1.96679688 C6.25734964 4.81851073 9.85062594 4.57612941 14.97265625 4.53125 C15.93272079 4.5350769 16.89278534 4.53890381 17.88194275 4.54284668 C19.90673881 4.54556297 21.93157012 4.53822166 23.95629883 4.52148438 C27.05564466 4.50004742 30.15267863 4.52130789 33.25195312 4.546875 C35.22135928 4.54423213 37.190764 4.53910801 39.16015625 4.53125 C40.08627213 4.53934692 41.012388 4.54744385 41.96656799 4.55578613 C47.19054214 4.53615228 47.19054214 4.53615228 51.61499023 1.96679688 C52.07204346 1.31775391 52.52909668 0.66871094 53 0 C52.43850643 3.25666272 51.62770014 4.95623323 49 7 C46.27058901 7.84313391 43.78569 8.13293374 40.9375 8.16113281 C40.14988281 8.17074036 39.36226562 8.1803479 38.55078125 8.19024658 C37.70902344 8.19449646 36.86726563 8.19874634 36 8.203125 C35.12730469 8.20882507 34.25460938 8.21452515 33.35546875 8.22039795 C31.51303311 8.22982923 29.67058074 8.23637448 27.828125 8.24023438 C25.01011926 8.24996506 22.19283547 8.2810158 19.375 8.3125 C17.58333766 8.3190281 15.79167011 8.32427933 14 8.328125 C13.15824219 8.3404718 12.31648437 8.3528186 11.44921875 8.36553955 C7.92833288 8.35212374 5.62381232 8.33539599 2.484375 6.64746094 C0.57468585 4.52795725 0.30247837 2.79792488 0 0 Z " fill="#03A3D8" transform="translate(161,177)"/>
<path d="M0 0 C0.598125 0.226875 1.19625 0.45375 1.8125 0.6875 C0.4925 2.0075 -0.8275 3.3275 -2.1875 4.6875 C-1.5275 6.0075 -0.8675 7.3275 -0.1875 8.6875 C19.1175 9.1825 19.1175 9.1825 38.8125 9.6875 C38.8125 9.0275 38.8125 8.3675 38.8125 7.6875 C39.4725 7.3575 40.1325 7.0275 40.8125 6.6875 C41.46805119 4.16016765 41.46805119 4.16016765 41.8125 1.6875 C42.4725 2.0175 43.1325 2.3475 43.8125 2.6875 C43.5 6.0625 43.5 6.0625 42.8125 9.6875 C39.78447629 11.70618247 39.17174016 11.94150102 35.77172852 11.97802734 C34.96401505 11.99078705 34.15630157 12.00354675 33.32411194 12.01669312 C32.45531906 12.01891876 31.58652618 12.02114441 30.69140625 12.0234375 C29.34694679 12.0334227 29.34694679 12.0334227 27.97532654 12.04360962 C26.07984469 12.0537337 24.18432722 12.05842671 22.28881836 12.05810547 C19.38921398 12.06247856 16.49113188 12.09879963 13.59179688 12.13671875 C11.75000521 12.14258698 9.90820631 12.14655633 8.06640625 12.1484375 C7.1996376 12.16280853 6.33286896 12.17717957 5.43983459 12.19198608 C-0.56095722 12.14644904 -0.56095722 12.14644904 -3.73852539 9.81884766 C-5.54154364 7.16672477 -5.75199494 5.83254324 -5.1875 2.6875 C-3.54664326 0.22621489 -2.98587219 -0.42655317 0 0 Z " fill="#D7DADC" transform="translate(52.1875,66.3125)"/>
<path d="M0 0 C-0.99 2.97 -1.98 5.94 -3 9 C-2.10796875 8.97679687 -1.2159375 8.95359375 -0.296875 8.9296875 C0.87359375 8.91164062 2.0440625 8.89359375 3.25 8.875 C4.99023438 8.84019531 4.99023438 8.84019531 6.765625 8.8046875 C9.82786046 8.9896051 11.44202751 9.39176977 14 11 C14 11.66 14 12.32 14 13 C11.41554227 13.1081866 8.83562648 13.18737237 6.25 13.25 C5.52039062 13.28351563 4.79078125 13.31703125 4.0390625 13.3515625 C0.48527454 13.41617683 -1.58442295 13.29509192 -4.51953125 11.2109375 C-6 9 -6 9 -5.9375 5.375 C-4.92958954 1.74652235 -4.04671923 0 0 0 Z " fill="#E3E5E6" transform="translate(51,179)"/>
<path d="M0 0 C15.84 0 31.68 0 48 0 C46 3 46 3 44.10253906 3.38095093 C43.33135742 3.38333771 42.56017578 3.38572449 41.765625 3.38818359 C40.89131836 3.39764008 40.01701172 3.40709656 39.11621094 3.4168396 C38.17036133 3.41076691 37.22451172 3.40469421 36.25 3.3984375 C35.28094727 3.40130768 34.31189453 3.40417786 33.31347656 3.40713501 C31.26236386 3.40917869 29.2112318 3.40362767 27.16015625 3.39111328 C24.01257939 3.37506414 20.86628671 3.39095194 17.71875 3.41015625 C15.72916382 3.40817387 13.73957844 3.40433031 11.75 3.3984375 C10.80415039 3.40451019 9.85830078 3.41058289 8.88378906 3.4168396 C8.00948242 3.40738312 7.13517578 3.39792664 6.234375 3.38818359 C5.46319336 3.38579681 4.69201172 3.38341003 3.89746094 3.38095093 C2 3 2 3 0 0 Z " fill="#BAD1D9" transform="translate(164,179)"/>
<path d="M0 0 C0.66 0.33 1.32 0.66 2 1 C1.34 1.66 0.68 2.32 0 3 C-0.64767793 5.57061311 -0.64767793 5.57061311 -1 8 C1.70584242 8.90194747 3.29255772 9.13045703 6.07250977 9.14526367 C6.88667862 9.15164352 7.70084747 9.15802338 8.53968811 9.16459656 C9.4147551 9.16570938 10.28982208 9.1668222 11.19140625 9.16796875 C12.0924559 9.17129715 12.99350555 9.17462555 13.92185974 9.17805481 C15.82574961 9.18311591 17.72964834 9.18546339 19.63354492 9.18530273 C22.55467183 9.18749413 25.47542405 9.20567179 28.39648438 9.22460938 C30.24479037 9.22754242 32.09309817 9.22952781 33.94140625 9.23046875 C34.81849747 9.23765427 35.69558868 9.24483978 36.59925842 9.25224304 C41.28172796 9.46324712 41.28172796 9.46324712 45 7 C45.64767793 4.42938689 45.64767793 4.42938689 46 2 C46.66 2.66 47.32 3.32 48 4 C47.625 7.125 47.625 7.125 47 10 C44.2565359 10.91448803 42.61817236 11.13074541 39.79150391 11.14526367 C38.94697662 11.15164352 38.10244934 11.15802338 37.23233032 11.16459656 C36.32292694 11.16570938 35.41352356 11.1668222 34.4765625 11.16796875 C33.53823578 11.17129715 32.59990906 11.17462555 31.63314819 11.17805481 C29.64768972 11.18311812 27.66222274 11.18546332 25.67675781 11.18530273 C22.64373694 11.18748651 19.61108138 11.20564108 16.578125 11.22460938 C14.64843874 11.22754398 12.71875076 11.22952833 10.7890625 11.23046875 C9.43103012 11.24124702 9.43103012 11.24124702 8.04556274 11.25224304 C3.58572598 11.23611615 0.05065965 11.11436682 -4 9 C-3.6875 5.625 -3.6875 5.625 -3 2 C-2.01 1.34 -1.02 0.68 0 0 Z " fill="#DCE4E7" transform="translate(166,169)"/>
<path d="M0 0 C0.33 0 0.66 0 1 0 C1.3672694 5.50904099 1.3672694 5.50904099 -0.25520325 7.67793274 C-2.39129621 9.29649293 -3.44767022 9.36509843 -6.10424805 9.34057617 C-7.3351844 9.34023628 -7.3351844 9.34023628 -8.59098816 9.33988953 C-9.9129998 9.31666374 -9.9129998 9.31666374 -11.26171875 9.29296875 C-12.62040825 9.28660149 -12.62040825 9.28660149 -14.00654602 9.28010559 C-16.90049933 9.26330848 -19.79375706 9.2256545 -22.6875 9.1875 C-24.64907849 9.17245449 -26.61066789 9.15876585 -28.57226562 9.14648438 C-33.38177856 9.11340157 -38.19077133 9.06161222 -43 9 C-39.9926157 5.9926157 -36.5970938 6.68238647 -32.5625 6.65625 C-31.72662354 6.6416272 -30.89074707 6.62700439 -30.02954102 6.61193848 C-26.44530469 6.54954138 -22.86089358 6.51003193 -19.27636719 6.46826172 C-16.66322546 6.43458966 -14.05045427 6.38946096 -11.4375 6.34375 C-10.2155896 6.33583435 -10.2155896 6.33583435 -8.96899414 6.32775879 C-4.51313434 6.43064418 -4.51313434 6.43064418 -1 4 C-0.3574765 1.93125966 -0.3574765 1.93125966 0 0 Z " fill="#EEF0F1" transform="translate(211,170)"/>
<path d="M0 0 C0 0.99 0 1.98 0 3 C-0.66 3 -1.32 3 -2 3 C-2 3.66 -2 4.32 -2 5 C-7.51754805 5.07402793 -13.03480856 5.12854366 -18.55273438 5.16479492 C-20.43071526 5.17990325 -22.30866076 5.20039094 -24.18652344 5.22631836 C-26.88225019 5.26261246 -29.57751146 5.27970545 -32.2734375 5.29296875 C-33.11619232 5.30845261 -33.95894714 5.32393646 -34.82723999 5.33988953 C-37.19287109 5.34057617 -37.19287109 5.34057617 -41 5 C-41.66 4.01 -42.32 3.02 -43 2 C-41.8039917 2.01047363 -40.6079834 2.02094727 -39.37573242 2.03173828 C-34.94216907 2.06791405 -30.50861879 2.09089166 -26.07495117 2.10986328 C-24.15533251 2.11992639 -22.23572919 2.13357816 -20.31616211 2.15087891 C-17.55839248 2.17511364 -14.80082536 2.18647992 -12.04296875 2.1953125 C-11.18350143 2.20563507 -10.32403412 2.21595764 -9.43852234 2.22659302 C-8.23761711 2.22681961 -8.23761711 2.22681961 -7.01245117 2.22705078 C-6.3085173 2.231492 -5.60458344 2.23593323 -4.87931824 2.24050903 C-2.6666762 2.09887773 -2.6666762 2.09887773 0 0 Z " fill="#EAECEC" transform="translate(93,71)"/>
<path d="M0 0 C1.5625 1.125 1.5625 1.125 3 3 C2.87062487 6.1050032 2.43847574 8.24484734 0.875 10.9375 C-1.47348533 12.26830835 -3.30106118 12.3964388 -5.94921875 11.92578125 C-10.49765786 9.87248588 -13.73162729 5.66858161 -17 2 C-16.34 1.67 -15.68 1.34 -15 1 C-14.01 1.33 -13.02 1.66 -12 2 C-12 2.66 -12 3.32 -12 4 C-11.01 4.33 -10.02 4.66 -9 5 C-9 5.99 -9 6.98 -9 8 C-6.36 8 -3.72 8 -1 8 C-0.40267181 5.23735711 0 2.83967231 0 0 Z " fill="#D5D9DA" transform="translate(206,81)"/>
<path d="M0 0 C0.66 0.33 1.32 0.66 2 1 C2 2.65 2 4.3 2 6 C-0.90755323 7.65619277 -2.97183423 8.24715763 -6.30957031 8.22705078 C-7.5704245 8.22682419 -7.5704245 8.22682419 -8.85675049 8.22659302 C-9.75480408 8.21627045 -10.65285767 8.20594788 -11.578125 8.1953125 C-12.5046991 8.1924826 -13.43127319 8.18965271 -14.38592529 8.18673706 C-17.34074909 8.17555611 -20.29526805 8.15045527 -23.25 8.125 C-25.25520395 8.11496751 -27.26041266 8.10584213 -29.265625 8.09765625 C-34.17720051 8.07562358 -39.08854859 8.04110795 -44 8 C-44 7.67 -44 7.34 -44 7 C-42.76846191 6.97494385 -41.53692383 6.9498877 -40.26806641 6.92407227 C-35.70952507 6.83007388 -31.15113882 6.72983485 -26.59277344 6.62768555 C-24.61787538 6.58430797 -22.64293913 6.542635 -20.66796875 6.50268555 C-17.8332161 6.44505127 -14.99865622 6.3813373 -12.1640625 6.31640625 C-11.27756012 6.29969376 -10.39105774 6.28298126 -9.47769165 6.26576233 C-5.10074845 6.28914789 -5.10074845 6.28914789 -1 5 C-0.34444881 2.47266765 -0.34444881 2.47266765 0 0 Z " fill="#E1E5E7" transform="translate(212,193)"/>
<path d="M0 0 C1.5625 1.0625 1.5625 1.0625 3 3 C2.875 6.5625 2.875 6.5625 2 10 C-1.7367843 12.49118953 -3.74451819 12.2065226 -8.1875 12.125 C-9.45980469 12.10695312 -10.73210937 12.08890625 -12.04296875 12.0703125 C-13.50669922 12.03550781 -13.50669922 12.03550781 -15 12 C-14.67 11.34 -14.34 10.68 -14 10 C-9.71 10 -5.42 10 -1 10 C0.10959932 4.35619781 0.10959932 4.35619781 0 0 Z " fill="#D4D7D9" transform="translate(95,180)"/>
<path d="M0 0 C0.33 0 0.66 0 1 0 C1.66 3.96 2.32 7.92 3 12 C7.97906259 12.75427297 7.97906259 12.75427297 13 13 C11.4375 15.0625 11.4375 15.0625 9 17 C5.375 16.9375 5.375 16.9375 2 16 C-0.42130331 12.36804504 -0.21022785 10.61650652 -0.125 6.3125 C-0.09792969 4.54326172 -0.09792969 4.54326172 -0.0703125 2.73828125 C-0.04710938 1.83464844 -0.02390625 0.93101562 0 0 Z " fill="#DBDDDF" transform="translate(65,195)"/>
<path d="M0 0 C1 2 1 2 1.1875 4.75 C2.17125221 8.68500886 3.71782984 9.89995816 6.6328125 12.54296875 C8.4953324 14.52788282 8.8426042 16.3242714 9 19 C0.25433526 11.85115607 0.25433526 11.85115607 -2 8 C-1.68421053 1.68421053 -1.68421053 1.68421053 0 0 Z " fill="#D8DBDD" transform="translate(169,52)"/>
<path d="M0 0 C0.66 0.33 1.32 0.66 2 1 C2.09034097 5.24602552 1.71063519 7.15260105 -1.0703125 10.46875 C-3.33095506 12.7081326 -5.62427037 14.88344087 -8 17 C-8.609375 15.140625 -8.609375 15.140625 -9 13 C-7.25 10.75 -7.25 10.75 -5 9 C-4.01 9 -3.02 9 -2 9 C-1.34 6.03 -0.68 3.06 0 0 Z " fill="#D8DBDD" transform="translate(207,54)"/>
<path d="M0 0 C1.32 0.33 2.64 0.66 4 1 C-1.94997348 6.76135761 -1.94997348 6.76135761 -5.75 7.625 C-8 7 -8 7 -11 3 C-7.7 3 -4.4 3 -1 3 C-0.67 2.01 -0.34 1.02 0 0 Z " fill="#D2D6D7" transform="translate(179,86)"/>
<path d="M0 0 C2.64680904 0.11339204 5.29177518 0.24012873 7.9375 0.375 C9.06961914 0.42140625 9.06961914 0.42140625 10.22460938 0.46875 C12.15507395 0.5726315 14.07942081 0.77895614 16 1 C16.33 1.66 16.66 2.32 17 3 C14.72975032 3.08097324 12.45867925 3.13917704 10.1875 3.1875 C8.29064453 3.23970703 8.29064453 3.23970703 6.35546875 3.29296875 C3 3 3 3 1.05078125 1.48828125 C0.70402344 0.99714844 0.35726562 0.50601563 0 0 Z " fill="#D2D5D7" transform="translate(46,189)"/>
<path d="M0 0 C0.33 0 0.66 0 1 0 C1.3095723 6.81059063 1.3095723 6.81059063 -1 10 C-3.93973224 12.11057699 -5.34648137 13 -9 13 C-8.51789063 12.56429687 -8.03578125 12.12859375 -7.5390625 11.6796875 C-3.67563714 8.03702931 -1.17599254 5.35729937 0 0 Z " fill="#F0F1F2" transform="translate(206,53)"/>
<path d="M0 0 C0.625 1.875 0.625 1.875 1 4 C0.34 4.66 -0.32 5.32 -1 6 C-3.72869407 5.96712417 -6.2966618 5.43602229 -9 5 C-9 4.34 -9 3.68 -9 3 C-6.36 3 -3.72 3 -1 3 C-0.67 2.01 -0.34 1.02 0 0 Z " fill="#EDEEEF" transform="translate(206,84)"/>
<path d="M0 0 C0.33 0.99 0.66 1.98 1 3 C-1 5 -1 5 -4.0390625 5.1953125 C-5.22242187 5.17210937 -6.40578125 5.14890625 -7.625 5.125 C-8.81351562 5.10695312 -10.00203125 5.08890625 -11.2265625 5.0703125 C-12.14179687 5.04710937 -13.05703125 5.02390625 -14 5 C-14 4.67 -14 4.34 -14 4 C-13.32453125 3.96261719 -12.6490625 3.92523438 -11.953125 3.88671875 C-11.06109375 3.82097656 -10.1690625 3.75523437 -9.25 3.6875 C-8.36828125 3.62949219 -7.4865625 3.57148438 -6.578125 3.51171875 C-3.67696226 2.9358819 -2.20774393 1.92403852 0 0 Z " fill="#EEEFF0" transform="translate(95,184)"/>
<path d="M0 0 C0.66 0.33 1.32 0.66 2 1 C1.67 3.31 1.34 5.62 1 8 C-0.32 8 -1.64 8 -3 8 C-3 7.34 -3 6.68 -3 6 C-2.34 5.67 -1.68 5.34 -1 5 C-0.34444881 2.47266765 -0.34444881 2.47266765 0 0 Z " fill="#D4D7D9" transform="translate(94,68)"/>
<path d="M0 0 C1.43088528 2.86177057 0.59991697 4.93375773 0 8 C-0.99 8.33 -1.98 8.66 -3 9 C-2.25 2.25 -2.25 2.25 0 0 Z " fill="#DDE0E2" transform="translate(170,80)"/>
<path d="M0 0 C3.3 0.33 6.6 0.66 10 1 C9.34 1.66 8.68 2.32 8 3 C4.4375 2.75 4.4375 2.75 1 2 C0.67 1.34 0.34 0.68 0 0 Z " fill="#C3C7C9" transform="translate(66,209)"/>
</svg>
